<svg xmlns="http://www.w3.org/2000/svg" viewBox="-71.5 -22.5 720 720" width="720" height="720">
  <rect x="-71.5" y="-22.5" width="720" height="720" rx="104" fill="#0b0d0e"/>
  <path fill="#52e492" fill-rule="nonzero" d="M398.86,625.53 C398.60,625.27 348.98,624.88 288.60,624.66 L178.81,624.27 L175.65,621.11 L172.50,617.96 L172.86,593.60 C173.17,572.08 173.01,568.82 171.48,565.59 C170.52,563.58 168.92,561.49 167.91,560.95 C166.91,560.42 162.36,560.08 157.79,560.21 C142.26,560.64 114.51,559.85 111.34,558.87 C105.57,557.10 105.00,554.28 105.00,527.23 C105.00,504.50 104.89,503.13 102.93,500.63 L100.85,498.00 L76.50,498.00 C50.32,498.00 49.74,497.89 48.47,492.68 C48.18,491.48 48.07,409.17 48.22,309.77 L48.50,129.05 L51.00,126.55 L53.50,124.05 L119.69,123.96 C164.07,123.89 186.52,124.21 187.83,124.91 C188.91,125.49 190.29,127.38 190.89,129.13 C191.68,131.39 192.00,178.17 192.00,292.70 C192.00,471.03 191.38,456.22 199.09,461.56 C202.61,464.00 204.67,464.59 211.41,465.11 C216.96,465.53 221.23,465.28 225.00,464.30 C231.04,462.75 238.68,463.30 243.21,465.62 C246.77,467.45 248.37,473.37 247.74,482.34 C247.14,490.79 248.23,495.95 251.09,498.27 C253.09,499.89 256.13,500.03 287.89,499.90 C306.92,499.82 323.68,499.33 325.12,498.81 C328.93,497.43 330.00,494.07 330.00,483.42 C330.00,473.23 331.22,468.84 334.98,465.50 C337.03,463.67 338.67,463.50 353.86,463.47 C372.13,463.44 377.25,462.49 381.07,458.43 L383.50,455.84 L384.00,367.33 L384.50,278.83 L387.14,276.56 C389.77,274.29 389.79,274.29 418.83,274.70 C451.20,275.16 452.79,274.90 454.89,268.88 C456.22,265.06 456.42,203.21 455.11,201.14 C453.54,198.67 444.78,197.93 417.53,197.93 C387.38,197.94 386.88,197.84 385.06,191.26 C383.94,187.23 383.59,136.14 384.63,129.81 C384.97,127.78 386.15,125.14 387.26,123.95 C389.23,121.84 389.71,121.80 407.89,122.38 C430.34,123.09 448.68,123.07 451.78,122.32 C453.03,122.02 454.48,120.96 455.01,119.98 C455.54,119.00 456.22,104.31 456.53,87.35 C457.16,52.97 457.26,52.47 464.07,50.69 C465.96,50.20 480.04,49.98 495.38,50.20 L523.25,50.59 L525.54,53.25 C528.69,56.91 529.20,63.32 528.82,94.18 C528.52,118.43 528.38,120.01 526.40,122.66 L524.31,125.47 L499.40,125.35 C485.71,125.28 471.22,125.09 467.22,124.93 C455.83,124.47 456.54,121.96 456.86,161.72 C457.03,181.50 457.54,195.95 458.11,196.63 C459.97,198.88 466.76,199.34 494.15,199.08 C513.09,198.90 522.46,199.17 523.89,199.94 C529.40,202.89 529.13,195.07 529.03,347.81 C528.98,438.10 528.59,489.82 527.94,492.20 C527.40,494.25 526.48,496.20 525.91,496.56 C525.34,496.91 514.07,497.31 500.87,497.45 C474.17,497.73 474.57,497.63 472.95,504.61 C472.45,506.75 472.04,518.45 472.02,530.60 C472.00,553.12 471.32,558.22 468.18,559.56 C467.26,559.95 454.78,560.17 440.46,560.05 C415.77,559.85 414.30,559.94 411.96,561.83 L409.50,563.82 L409.00,591.66 C408.48,620.54 408.14,622.78 404.04,624.98 C402.02,626.06 399.65,626.31 398.86,625.53 Z"/>
</svg>